<svg xmlns="http://www.w3.org/2000/svg" width="114" height="99" viewBox="0 0 114 99"><defs><filter id="a" width="200%" height="200%" x="-50%" y="-50%"><feMorphology in="SourceGraphic" operator="dilate" result="SvgjsFeMorphology1011Out"/><feOffset dy="10" in="SvgjsFeMorphology1011Out" result="SvgjsFeOffset1012Out"/><feGaussianBlur in="SvgjsFeOffset1012Out" result="SvgjsFeGaussianBlur1013Out" stdDeviation="10"/><feComposite in="SvgjsFeGaussianBlur1013Out" in2="SourceAlpha" operator="out" result="SvgjsFeComposite1014Out"/></filter><linearGradient id="b" x1="2232.57" x2="2232.57" y1="364.8" y2="314.44" gradientUnits="userSpaceOnUse"><stop offset="0" stop-opacity=".5"/><stop offset="1" stop-opacity="0"/></linearGradient></defs><path fill="#ea1821" d="M88.2 49a39.2 39.2 0 1 1-28.42-37.68l7.69-7.7A49 49 0 1 0 98 49"/><path fill="#e10000" fill-opacity=".4" d="M2203.96 338.6l-6.91 6.95 22.05 22.05 49-49-6.91-6.96-42.09 42.1z" filter="url(#a)" transform="translate(-2175 -299)"/><path fill="#ea1821" d="M28.96 39.6l-6.91 6.95L44.1 68.6l49-49-6.91-6.96-42.09 42.1z"/><path fill="#ea1821" d="M28.96 39.6l-6.91 6.95L44.1 68.6l49-49-6.91-6.96-42.09 42.1z"/><path fill="url(#b)" d="M2203.96 338.6l-6.91 6.95 22.05 22.05 49-49-6.91-6.96-42.09 42.1z" transform="translate(-2175 -299)"/></svg>